<?xml version="1.0" standalone="no"?>
<!DOCTYPE svg PUBLIC "-//W3C//DTD SVG 20010904//EN"
 "http://www.w3.org/TR/2001/REC-SVG-20010904/DTD/svg10.dtd">
<svg version="1.0" xmlns="http://www.w3.org/2000/svg"
 width="512.000000pt" height="512.000000pt" viewBox="0 0 512.000000 512.000000"
 preserveAspectRatio="xMidYMid meet">

<g transform="translate(0.000000,512.000000) scale(0.100000,-0.100000)"
fill="#000000" stroke="none">
<path d="M2861 5109 c-28 -11 -364 -339 -422 -412 -31 -39 -39 -57 -39 -90 0
-41 3 -44 357 -399 l358 -358 -465 -468 c-256 -257 -669 -672 -918 -922 l-452
-455 -337 336 c-186 185 -351 346 -367 357 -46 35 -95 29 -153 -17 -54 -44
-368 -360 -401 -405 -24 -31 -28 -75 -11 -109 6 -12 88 -100 182 -194 l172
-173 -173 -173 -172 -173 0 -49 0 -49 202 -203 203 -203 -162 -163 c-88 -89
-166 -172 -172 -184 -14 -28 -14 -68 0 -96 16 -31 379 -395 411 -413 32 -17
71 -18 101 -3 12 6 95 84 184 172 l163 162 203 -203 203 -202 46 0 c56 0 66 8
256 200 l143 144 172 -171 c95 -94 182 -176 194 -182 37 -19 78 -13 119 18 46
34 394 384 418 421 21 31 21 89 0 120 -9 14 -169 178 -355 365 l-339 340 920
920 920 920 358 -358 c353 -352 358 -357 398 -357 57 0 85 23 311 251 200 203
217 228 198 291 -4 12 -86 103 -183 200 l-176 178 163 164 c90 90 167 170 172
177 5 8 9 34 9 58 l0 45 -202 203 -203 203 162 163 c88 89 166 172 172 184 14
28 14 68 0 96 -16 31 -379 395 -411 413 -32 17 -71 18 -101 3 -12 -6 -95 -84
-184 -172 l-163 -162 -203 203 -203 202 -49 0 -49 0 -173 -172 -173 -173 -173
172 c-94 94 -182 176 -194 182 -26 13 -59 13 -92 0z m1019 -1234 l965 -965
-118 -117 -117 -118 -967 967 -968 968 115 115 c63 63 117 115 120 115 3 0
439 -434 970 -965z m833 -277 l-118 -118 -557 557 -558 558 117 117 118 118
557 -557 558 -558 -117 -117z m-43 1067 l95 -95 -118 -118 -117 -117 -97 98
-98 97 115 115 c63 63 117 115 120 115 3 0 48 -43 100 -95z m-1185 -1185 l200
-200 -920 -920 -920 -920 -202 202 -203 203 917 917 c505 505 920 918 923 918
3 0 95 -90 205 -200z m-2005 -2005 l965 -965 -115 -114 -115 -115 -970 964
-970 964 115 115 c63 64 117 116 120 116 3 0 439 -434 970 -965z m45 -1065
l-115 -115 -557 557 -558 558 115 115 115 115 557 -557 558 -558 -115 -115z
m-835 275 l95 -95 -118 -118 -118 -117 -94 100 -94 100 112 113 c61 61 114
112 117 112 3 0 48 -43 100 -95z"/>
</g>
</svg>
